<svg xmlns="http://www.w3.org/2000/svg" width="25.524" height="23.199" viewBox="0 0 25.524 23.199">
  <path id="Path_9863" data-name="Path 9863" d="M23.9,10.414l.925,0h0a.692.692,0,0,0,0-1.384l-4.571-.015L16.983.445a.692.692,0,0,0-1.293.5L18.78,9.014,6.59,8.975,9.752,1.1A.692.692,0,1,0,8.468.588L5.1,8.971,2.182,8.962a.6.6,0,0,0-.085,0l-1.4,0h0a.692.692,0,0,0,0,1.384l.868,0,1.55,8.432A5.4,5.4,0,0,0,8.419,23.2h8.055a6.182,6.182,0,0,0,6.1-5.135Zm-7.835,11.4H13.147V10.38l4.332.014Zm-7.222,0L7.55,10.362l4.213.014V21.815Zm-4.378-3.29-1.5-8.177,3.191.01L7.44,21.692a4.016,4.016,0,0,1-2.971-3.167m13.008,3.181L18.871,10.4l3.629.011-1.288,7.418a4.8,4.8,0,0,1-3.736,3.879" transform="translate(0 0)" fill="#fff"/>
</svg>
