<svg xmlns="http://www.w3.org/2000/svg" width="698.248px" height="512.431px" viewBox="0 0 698.248 512.431" transform="rotate(0) scale(1, 1)">
  <path id="Union_17" d="M505.89,500.038c-6-9.295-4.566-19.843,3.211-23.563s18.949.793,24.954,10.09,4.567,19.841-3.211,23.563a13.838,13.838,0,0,1-6.006,1.3C518.048,511.431,510.468,507.123,505.89,500.038Zm-373.334,7.9c-4.67-3.282-3.9-10.592,1.716-16.323s13.954-7.723,18.624-4.441,3.9,10.592-1.712,16.327c-3.783,3.858-8.8,6.02-13.1,6.02A9.517,9.517,0,0,1,132.556,507.933Zm93.816-57.77c-22.189,0-45.018,20.732-61.292,20.732-13.122,0-16.895-12.4-16.895-16.838,0-16.858,22.318-37.446,22.318-48.232,0-3.312-2.549-16.464-19.645-16.464-18.942,0-46.515,13.961-65.2,13.961-21.016,0-24.628-15.074-24.838-18.094q-.039-.568-.04-1.122c0-18.973,34.622-26.875,34.622-50.2,0-7.6-4.928-28.235-35.511-28.235-14.96,0-27.233,4.5-38.158,4.5C10.26,310.175,0,305.446,0,293.783c0-29.028,75.347-9.105,75.347-40.323,0-25.9-60.445-31.2-60.445-78.072,0-8.23,5.234-38.826,37.812-38.826,34.146,0,46.029,34.758,75.213,34.758,13.082,0,15.805-9.208,15.805-22.406,0-9.752-1.586-21.562-1.586-32.184,0-.507-.07-1.665-.07-3.254,0-8.416,1.9-28.921,25.866-28.921,29.721,0,22.653,36.416,49.464,36.416.222,0,.492.005.8.005,4.073,0,15.08-.825,15.08-24.162,0-17.57-9.22-38.872-9.22-54.373,0-16.667,11.676-41.378,40.23-41.378,9.02,0,33.568,4.979,43.08,44.66,3.1,12.928,10.323,36.433,30.291,36.433C366.773,82.155,376.257,0,405.641,0,421.971,0,424.1,17.184,424.1,42.744v6.8c0,29.935,3.47,45.541,21.039,45.541,20.123,0,59.979-25.617,81.95-25.617,9.418,0,15.6,4.677,15.6,18.026,0,28.4-21.008,43.816-21.008,58.989,0,13.577,15.366,18.452,26.524,18.452,16.354,0,38.3-20.162,61.056-20.162,15.05,0,20.689,15.2,20.689,23,0,34.58-65.846,16.892-65.846,47.97,0,51.652,74.513,39.81,74.513,75.22,0,13.409-11.195,30.5-42.495,30.5-12.381,0-26.458-2.874-37.453-2.874-.943,0-25.458,1.282-25.458,15.034,0,13.1,14.489,24.508,14.489,37.559,0,14.121-16.113,21.29-32.939,21.29-9.725,0-15.05-2.376-26.677-2.376-10.87,0-20.064,2.668-20.064,13.405,0,15.333,14.937,32.345,14.937,52.126,0,7.857-.681,43.371-49.389,43.371-44.75,0-37.269-66.914-87.34-66.914-38.378,0-35.275,72.759-66.087,72.759C250.457,504.838,262.064,450.162,226.372,450.162ZM83.341,474.434c24.633-12.91,23.868-20.885,33.437-21.526,3.92-.264,7.673,1.492,7.958,5.608.34,4.856-4.314,10.255-11.895,18.2-11.6,12.164-9.478,23.475-23.868,24.44q-.4.027-.813.027C77.018,501.182,59.837,486.759,83.341,474.434Zm437.907-41.5c-1.3-2.662-17.01-22.705,5.781-24.232,12.733-.855,50.922,8.977,53.074,39.79.4,5.655-3.338,16.711-18.3,17.714q-1.438.1-2.805.1C535.049,466.306,526.984,444.706,521.247,432.938ZM14.32,421.66c-3.7-4.081-1.071-11.1,5.856-15.68S35.72,401,39.415,405.085s1.072,11.1-5.858,15.68a21.649,21.649,0,0,1-11.6,3.714C18.792,424.48,16.03,423.55,14.32,421.66Zm-3.145-46.154c-1.4-4.227,3.227-9.117,10.33-10.929s14,.153,15.394,4.378-3.221,9.118-10.328,10.925a21.4,21.4,0,0,1-5.258.673C16.337,380.554,12.223,378.663,11.176,375.507ZM674.94,313.97c-11.582-.618-20.392-8.265-19.676-17.075s10.681-15.458,22.259-14.838,20.392,8.265,19.68,17.08c-.683,8.429-9.831,14.873-20.762,14.873Q675.7,314.01,674.94,313.97Zm-21.946-52.376c-8.666-.426-15.312-4.979-14.843-10.173s7.883-9.053,16.552-8.63,15.312,4.979,14.839,10.172c-.445,4.931-7.154,8.663-15.255,8.663Q653.646,261.625,652.994,261.594ZM639.749,159.547c-.95-3.141,1.292-6.392,5.007-7.261s7.494.978,8.442,4.117-1.294,6.391-5.008,7.26a8.141,8.141,0,0,1-1.856.215C643.291,163.878,640.537,162.162,639.749,159.547Zm-72.2-27.691c-.182-2.643,2.216-6.983,13.159-19.631,13.312-15.377,9.871-29.883,29.492-31.2,8.529-.57,16.882,4.437,17.48,12.973.515,7.39-5.618,11.181-7.829,12.311-26.088,13.374-33.81,29.381-44.613,30.1-.387.026-.753.038-1.1.038C568.03,136.453,567.6,132.656,567.549,131.856ZM74.623,88.084C73.183,80.09,88.137,66.257,98.7,78.357c16.473,18.856,19.425,16.444,19.8,21.8.184,2.6-1.575,5.1-5.887,5.39-.1.007-.22.01-.351.01C106.713,105.559,76.664,99.407,74.623,88.084ZM93.347,27.257c-.175-2.523-1.464-13.275,15.373-14.4,25.074-1.683,31.213,17.8,36.793,34.119,1.063,3.105,3.92,8.244,4.236,12.771.431,6.141-4.2,8.631-10.788,9.074q-.552.037-1.137.037C123.555,68.855,95.109,52.47,93.347,27.257Zm77.6,10.717c-.6-8.563,4.891-13.2,9.925-13.535,7.614-.509,13.84,7.077,14.388,14.906.6,8.563-4.891,13.2-9.929,13.539-.243.016-.484.024-.725.024C177.327,52.907,171.473,45.557,170.945,37.974ZM527.88,51.24c-4.972-2.949-4.9-10.276.167-16.366s13.2-8.636,18.178-5.691,4.9,10.276-.17,16.365c-3.635,4.373-8.851,6.918-13.346,6.918A9.4,9.4,0,0,1,527.88,51.24Z" transform="translate(0.5 0.5)" fill="#F6E1E8" stroke="#00000000" stroke-width="1"/>
</svg>