<svg xmlns="http://www.w3.org/2000/svg" width="637.671" height="467.997" viewBox="0 0 637.671 467.997">
  <path id="Union_2" data-name="Union 2" d="M461.938,456.594c-5.482-8.487-4.169-18.119,2.932-21.516s17.3.724,22.786,9.213,4.17,18.117-2.932,21.516a12.636,12.636,0,0,1-5.485,1.19C473.04,467,466.118,463.063,461.938,456.594ZM121.04,463.8c-4.264-3-3.565-9.672,1.567-14.9s12.742-7.052,17.006-4.055,3.563,9.672-1.564,14.908a17.578,17.578,0,0,1-11.959,5.5A8.69,8.69,0,0,1,121.04,463.8ZM206.7,411.052c-20.262,0-41.107,18.931-55.967,18.931-11.982,0-15.427-11.326-15.427-15.376,0-15.393,20.379-34.193,20.379-44.042,0-3.024-2.328-15.034-17.938-15.034-17.3,0-42.474,12.748-59.533,12.748-19.19,0-22.488-13.765-22.68-16.522q-.035-.518-.036-1.025c0-17.325,31.614-24.54,31.614-45.838,0-6.939-4.5-25.782-32.426-25.782-13.66,0-24.867,4.113-34.843,4.113C9.369,283.227,0,278.909,0,268.259c0-26.506,68.8-8.314,68.8-36.82,0-23.646-55.193-28.487-55.193-71.289,0-7.515,4.779-35.453,34.527-35.453,31.18,0,42.03,31.738,68.679,31.738,11.946,0,14.432-8.408,14.432-20.46,0-8.9-1.448-19.689-1.448-29.388,0-.463-.063-1.521-.063-2.972,0-7.685,1.738-26.408,23.619-26.408,27.139,0,20.685,33.252,45.166,33.252.2,0,.449,0,.731,0,3.719,0,13.77-.753,13.77-22.063,0-16.043-8.419-35.495-8.419-49.649C204.6,23.533,215.262.969,241.335.969c8.237,0,30.651,4.546,39.337,40.78,2.829,11.8,9.426,33.268,27.659,33.268C334.907,75.017,343.567,0,370.4,0c14.911,0,16.855,15.691,16.855,39.031v6.205c0,27.334,3.168,41.584,19.212,41.584,18.375,0,54.768-23.392,74.83-23.392,8.6,0,14.24,4.27,14.24,16.46,0,25.931-19.183,40.009-19.183,53.864,0,12.4,14.031,16.849,24.219,16.849,14.934,0,34.97-18.411,55.752-18.411,13.742,0,18.891,13.883,18.891,21,0,31.576-60.125,15.425-60.125,43.8,0,47.164,68.04,36.351,68.04,68.685,0,12.244-10.222,27.851-38.8,27.851-11.305,0-24.159-2.625-34.2-2.625-.861,0-23.246,1.17-23.246,13.728,0,11.96,13.23,22.379,13.23,34.3,0,12.894-14.713,19.44-30.078,19.44-8.88,0-13.742-2.169-24.359-2.169-9.926,0-18.321,2.436-18.321,12.241,0,14,13.639,29.535,13.639,47.6,0,7.174-.622,39.6-45.1,39.6-40.862,0-34.031-61.1-79.752-61.1-35.044,0-32.21,66.438-60.345,66.438C228.7,460.977,239.3,411.052,206.7,411.052ZM76.1,433.215c22.493-11.789,21.795-19.071,30.532-19.656,3.579-.241,7.006,1.362,7.266,5.12.311,4.434-3.939,9.364-10.861,16.619-10.6,11.107-8.655,21.435-21.795,22.317q-.366.024-.743.024C70.327,457.639,54.639,444.469,76.1,433.215Zm399.861-37.891c-1.186-2.431-15.533-20.733,5.279-22.126,11.627-.78,46.5,8.2,48.463,36.333.362,5.163-3.048,15.259-16.706,16.175q-1.313.088-2.562.087C488.563,425.793,481.2,406.069,475.961,395.324Zm-462.885-10.3C9.7,381.3,12.1,374.89,18.424,370.708s14.193-4.548,17.567-.817.979,10.14-5.349,14.318a19.768,19.768,0,0,1-10.6,3.392C17.159,387.6,14.637,386.752,13.076,385.026ZM10.2,342.882c-1.275-3.86,2.946-8.325,9.432-9.979s12.78.139,14.056,4-2.942,8.326-9.431,9.976a19.543,19.543,0,0,1-4.8.615C14.918,347.491,11.161,345.764,10.2,342.882Zm606.1-56.191c-10.576-.564-18.62-7.547-17.967-15.591s9.753-14.115,20.325-13.549,18.62,7.547,17.97,15.6c-.623,7.7-8.977,13.581-18.958,13.581Q616.991,286.728,616.3,286.692Zm-20.04-47.825c-7.913-.389-13.982-4.546-13.553-9.289s7.2-8.267,15.114-7.88,13.982,4.547,13.55,9.288c-.407,4.5-6.532,7.91-13.93,7.91Q596.857,238.895,596.261,238.866Zm-12.094-93.181c-.868-2.868,1.18-5.837,4.572-6.63s6.843.893,7.708,3.76-1.181,5.836-4.573,6.629a7.434,7.434,0,0,1-1.695.2A6.1,6.1,0,0,1,584.167,145.686ZM518.239,120.4c-.166-2.414,2.024-6.376,12.016-17.926,12.155-14.041,9.013-27.286,26.93-28.488,7.788-.52,15.415,4.051,15.961,11.846.471,6.748-5.13,10.209-7.149,11.242-23.822,12.212-30.872,26.828-40.737,27.489-.353.024-.687.035-1.006.035C518.679,124.6,518.291,121.131,518.239,120.4Zm-450.1-39.97c-1.315-7.3,12.341-19.93,21.99-8.882,15.041,17.218,17.737,15.016,18.079,19.908.168,2.376-1.438,4.658-5.376,4.922-.094.006-.2.009-.32.009C97.442,96.388,70,90.77,68.139,80.431Zm17.1-55.542c-.16-2.3-1.337-12.122,14.037-13.151,22.9-1.536,28.5,16.251,33.6,31.154.971,2.836,3.579,7.528,3.868,11.662.393,5.608-3.836,7.881-9.851,8.286q-.5.034-1.038.034C112.821,62.873,86.846,47.911,85.237,24.889Zm70.856,9.786c-.545-7.819,4.466-12.05,9.063-12.359,6.952-.465,12.637,6.462,13.138,13.611.545,7.819-4.466,12.054-9.066,12.363-.222.015-.442.022-.662.022C161.92,48.31,156.575,41.6,156.093,34.675ZM482.017,46.788c-4.54-2.692-4.473-9.383.152-14.944s12.057-7.886,16.6-5.2,4.47,9.383-.155,14.943c-3.319,3.993-8.082,6.317-12.187,6.317A8.585,8.585,0,0,1,482.017,46.788Z" transform="translate(0.5 0.5)" fill="#f5d492" stroke="rgba(0,0,0,0)" stroke-width="1"/>
</svg>
