<svg xmlns="http://www.w3.org/2000/svg" width="33.556" height="24.101" viewBox="0 0 33.556 24.101">
  <g id="Group_2196" data-name="Group 2196" transform="translate(0.5 0.5)">
    <line id="Line_25" data-name="Line 25" x2="5.662" transform="translate(1.415 4.077)" fill="none" stroke="#fff" stroke-linecap="round" stroke-linejoin="round" stroke-width="1"/>
    <line id="Line_26" data-name="Line 26" x2="4.246" transform="translate(0 6.794)" fill="none" stroke="#fff" stroke-linecap="round" stroke-linejoin="round" stroke-width="1"/>
    <line id="Line_27" data-name="Line 27" x2="7.077" transform="translate(1.415 9.512)" fill="none" stroke="#fff" stroke-linecap="round" stroke-linejoin="round" stroke-width="1"/>
    <line id="Line_28" data-name="Line 28" x2="11.324" transform="translate(21.232 10.871)" fill="none" stroke="#fff" stroke-linejoin="round" stroke-width="1"/>
    <path id="Path_9859" data-name="Path 9859" d="M8.746,17.294H6.387A1.851,1.851,0,0,1,4.5,15.483V10.5" transform="translate(1.162 3.089)" fill="none" stroke="#fff" stroke-linejoin="round" stroke-width="1"/>
    <line id="Line_29" data-name="Line 29" x1="7.077" transform="translate(15.57 20.383)" fill="none" stroke="#fff" stroke-linejoin="round" stroke-width="1"/>
    <path id="Path_9860" data-name="Path 9860" d="M15.5,3.5h6.061a2.1,2.1,0,0,1,1.727.887l3.188,4.59a1.939,1.939,0,0,1,.348,1.1v7.731a2.037,2.037,0,0,1-2.076,1.993h-2.17" transform="translate(5.732 0.577)" fill="none" stroke="#fff" stroke-linejoin="round" stroke-width="1"/>
    <ellipse id="Ellipse_41" data-name="Ellipse 41" cx="2.831" cy="2.718" rx="2.831" ry="2.718" transform="translate(9.908 17.665)" fill="none" stroke="#fff" stroke-linecap="round" stroke-linejoin="round" stroke-width="1"/>
    <ellipse id="Ellipse_42" data-name="Ellipse 42" cx="2.831" cy="2.718" rx="2.831" ry="2.718" transform="translate(22.647 17.665)" fill="none" stroke="#fff" stroke-linecap="round" stroke-linejoin="round" stroke-width="1"/>
    <path id="Path_9861" data-name="Path 9861" d="M3.5.5H18.362a2.083,2.083,0,0,1,2.123,2.038V12.05a2.083,2.083,0,0,1-2.123,2.038H3.5" transform="translate(0.746 -0.5)" fill="none" stroke="#fff" stroke-linecap="round" stroke-linejoin="round" stroke-width="1"/>
  </g>
</svg>
